<?xml version="1.0" encoding="utf-8" standalone="yes"?> <svg width="150" height="150" viewBox="-2 -2 29 29" xmlns="http://www.w3.org/2000/svg" shape-rendering="crispEdges" id="qr code"><rect id="qr background" fill-opacity="1" fill="#3684ff" x="-2" y="-2" width="29" height="29"></rect><path fill-opacity="1" fill="rgb(243, 238, 238)" id="qr light pixels" fill-rule="evenodd" d="M 9 0 L 10 0 L 10 1 L 9 1 z M 11 0 L 12 0 L 12 1 L 11 1 z M 13 0 L 16 0 L 16 1 L 17 1 L 17 2 L 15 2 L 15 1 L 14 1 L 14 2 L 13 2 z M 8 1 L 9 1 L 9 2 L 8 2 z M 11 2 L 13 2 L 13 3 L 12 3 L 12 4 L 11 4 z M 14 3 L 15 3 L 15 4 L 14 4 z M 9 4 L 11 4 L 11 5 L 10 5 L 10 10 L 9 10 L 9 11 L 8 11 L 8 15 L 7 15 L 7 14 L 4 14 L 4 10 L 5 10 L 5 9 L 4 9 L 4 8 L 6 8 L 6 9 L 7 9 L 7 10 L 6 10 L 6 11 L 5 11 L 5 13 L 7 13 L 7 12 L 6 12 L 6 11 L 7 11 L 7 10 L 8 10 L 8 9 L 9 9 L 9 8 L 8 8 L 8 7 L 9 7 L 9 6 L 8 6 L 8 5 L 9 5 z M 12 5 L 14 5 L 14 9 L 15 9 L 15 5 L 17 5 L 17 6 L 16 6 L 16 7 L 17 7 L 17 8 L 16 8 L 16 11 L 15 11 L 15 10 L 13 10 L 13 6 L 12 6 z M 11 6 L 12 6 L 12 8 L 11 8 z M 7 8 L 8 8 L 8 9 L 7 9 z M 18 8 L 20 8 L 20 9 L 19 9 L 19 10 L 18 10 L 18 11 L 17 11 L 17 9 L 18 9 z M 23 8 L 24 8 L 24 9 L 23 9 z M 11 9 L 12 9 L 12 10 L 11 10 z M 20 9 L 23 9 L 23 10 L 24 10 L 24 9 L 25 9 L 25 12 L 23 12 L 23 11 L 21 11 L 21 10 L 20 10 z M 1 10 L 3 10 L 3 12 L 2 12 L 2 11 L 1 11 z M 11 11 L 13 11 L 13 12 L 12 12 L 12 13 L 11 13 z M 16 11 L 17 11 L 17 13 L 16 13 z M 18 11 L 21 11 L 21 12 L 20 12 L 20 13 L 19 13 L 19 12 L 18 12 z M 0 12 L 1 12 L 1 15 L 0 15 z M 21 12 L 22 12 L 22 13 L 24 13 L 24 14 L 22 14 L 22 15 L 24 15 L 24 16 L 21 16 z M 2 13 L 3 13 L 3 14 L 2 14 z M 10 13 L 11 13 L 11 16 L 10 16 z M 3 14 L 4 14 L 4 15 L 7 15 L 7 16 L 6 16 L 6 17 L 5 17 L 5 16 L 2 16 L 2 17 L 0 17 L 0 16 L 1 16 L 1 15 L 3 15 z M 12 14 L 14 14 L 14 16 L 12 16 z M 15 14 L 17 14 L 17 16 L 16 16 L 16 15 L 15 15 z M 18 14 L 20 14 L 20 15 L 18 15 z M 24 14 L 25 14 L 25 15 L 24 15 z M 8 15 L 9 15 L 9 16 L 8 16 z M 7 16 L 8 16 L 8 17 L 7 17 z M 9 16 L 10 16 L 10 17 L 9 17 z M 11 16 L 12 16 L 12 17 L 14 17 L 14 16 L 16 16 L 16 19 L 15 19 L 15 18 L 14 18 L 14 19 L 15 19 L 15 20 L 16 20 L 16 21 L 17 21 L 17 23 L 18 23 L 18 24 L 17 24 L 17 25 L 13 25 L 13 24 L 15 24 L 15 23 L 14 23 L 14 21 L 13 21 L 13 23 L 11 23 L 11 22 L 10 22 L 10 23 L 9 23 L 9 21 L 11 21 L 11 20 L 12 20 L 12 19 L 11 19 L 11 20 L 10 20 L 10 19 L 9 19 L 9 21 L 8 21 L 8 18 L 11 18 z M 21 17 L 22 17 L 22 19 L 24 19 L 24 20 L 23 20 L 23 21 L 22 21 L 22 20 L 21 20 z M 23 17 L 24 17 L 24 18 L 23 18 z M 24 20 L 25 20 L 25 21 L 24 21 z M 19 21 L 20 21 L 20 24 L 19 24 z M 21 22 L 22 22 L 22 24 L 21 24 z M 24 22 L 25 22 L 25 24 L 23 24 L 23 23 L 24 23 z M 10 23 L 11 23 L 11 25 L 9 25 L 9 24 L 10 24 z M 18 24 L 19 24 L 19 25 L 18 25 z"></path><path id="qr squares" d="M-1,-1h9h0v0v9v0h0h-9h0v0v-9v0h0zM0,0h7h0v0v7v0h0h-7h0v0v-7v0h0zM1,1h5h0v0v5v0h0h-5h0v0v-5v0h0zM2,2h3h0v0v3v0h0h-3h0v0v-3v0h0z M17,-1h9h0v0v9v0h0h-9h0v0v-9v0h0zM18,0h7h0v0v7v0h0h-7h0v0v-7v0h0zM19,1h5h0v0v5v0h0h-5h0v0v-5v0h0zM20,2h3h0v0v3v0h0h-3h0v0v-3v0h0z M-1,17h9h0v0v9v0h0h-9h0v0v-9v0h0zM0,18h7h0v0v7v0h0h-7h0v0v-7v0h0zM1,19h5h0v0v5v0h0h-5h0v0v-5v0h0zM2,20h3h0v0v3v0h0h-3h0v0v-3v0h0zM17,17h3h0v0v3v0h0h-3h0v0v-3v0h0zM18,18h1h0v0v1v0h0h-1h0v0v-1v0h0z" fill-rule="evenodd" fill-opacity="1" fill="rgb(255, 255, 255)"></path></svg>